# xmcd
#
# Track frame offsets: 
#        150
#        9107
#        20257
#        30856
#        42968
#        55664
#        65753
#        77530
#        87347
#        99376
#        113046
#        126635
#        140563
#        152501
#        165020
#        177680
#        190133
#        202849
#        212413
#        223559
#
# Disc length: 3138 seconds
#
# Revision: 0
# Processed by: cddbd v1.5.2PL0 Copyright (c) Steve Scherf et al.
# Submitted via: ExactAudioCopy v1.0b4
#
DISCID=f90c4014
DTITLE=Various Artist - CD 7
DYEAR=2013
DGENRE=Soul
TTITLE0=Ray Charles - Hit the road Jack
TTITLE1=Solomon Burke - No man walks alone
TTITLE2=Chuck Jackson - I don't want to cry
TTITLE3=Al Hibbler - After the lights go down low
TTITLE4=Johnny Mathis - Gina
TTITLE5=Sam Cooke - I'll come running back to you
TTITLE6=Aretha Franklin - Lover come back to me
TTITLE7=Ben E. King - There goes my baby (with The Drifters)
TTITLE8=Joe Turner - Midnight special train
TTITLE9=James Brown - Why do you do me
TTITLE10=Ben E. King - Stand by me
TTITLE11=The Four Tops - Could it be you
TTITLE12=LaVern Baker - I didn't know I was crying
TTITLE13=James Brown - Please Please Please
TTITLE14=Johnny Mathis - A certain smile
TTITLE15=Sam Cooke - You send me
TTITLE16=Aretha Franklin - Without the one I love
TTITLE17=Ben E. King - Brace yourself
TTITLE18=The Marvelettes - Please Mr. Postman
TTITLE19=James Brown - Got to cry
EXTD=
EXTT0=
EXTT1=
EXTT2=
EXTT3=
EXTT4=
EXTT5=
EXTT6=
EXTT7=
EXTT8=
EXTT9=
EXTT10=
EXTT11=
EXTT12=
EXTT13=
EXTT14=
EXTT15=
EXTT16=
EXTT17=
EXTT18=
EXTT19=
PLAYORDER=
